<?xml version="1.0" encoding="UTF-8"?>
<!DOCTYPE svg PUBLIC "-//W3C//DTD SVG 1.1//EN" "http://www.w3.org/Graphics/SVG/1.1/DTD/svg11.dtd">
<!-- Creator: CorelDRAW -->
<svg xmlns="http://www.w3.org/2000/svg" xml:space="preserve" width="2048px" height="2048px" style="shape-rendering:geometricPrecision; text-rendering:geometricPrecision; image-rendering:optimizeQuality; fill-rule:evenodd; clip-rule:evenodd"
viewBox="0 0 2048 2048"
 xmlns:xlink="http://www.w3.org/1999/xlink">
 <defs>
  <style type="text/css">
   <![CDATA[
    .fil2 {fill:none}
    .fil1 {fill:#424242}
    .fil0 {fill:#424242;fill-rule:nonzero}
   ]]>
  </style>
 </defs>
 <g id="Layer_x0020_1">
  <metadata id="CorelCorpID_0Corel-Layer"/>
  <g id="_324610568">
   <path id="_324611456" class="fil0" d="M255.998 695.305l0 -204.814c0,-17.6728 14.328,-32.0008 32.0008,-32.0008l1472 0c17.6728,0 32.0008,14.328 32.0008,32.0008l0 204.814 -1536 0zm1026.79 -150.408c-17.6728,0 -32.0008,14.328 -32.0008,32.0008 0,17.6728 14.328,32.0008 32.0008,32.0008l16.5225 0c17.6728,0 32.0008,-14.328 32.0008,-32.0008 0,-17.6728 -14.328,-32.0008 -32.0008,-32.0008l-16.5225 0zm165.716 0c-17.6728,0 -32.0008,14.328 -32.0008,32.0008 0,17.6728 14.328,32.0008 32.0008,32.0008l16.5225 0c17.6728,0 32.0008,-14.328 32.0008,-32.0008 0,-17.6728 -14.328,-32.0008 -32.0008,-32.0008l-16.5225 0zm165.717 0c-17.6728,0 -32.0008,14.328 -32.0008,32.0008 0,17.6728 14.328,32.0008 32.0008,32.0008l16.5225 0c17.6728,0 32.0008,-14.328 32.0008,-32.0008 0,-17.6728 -14.328,-32.0008 -32.0008,-32.0008l-16.5225 0z"/>
   <path id="_324610640" class="fil1" d="M1792 1557.51l0 -830.203 -1536 0 0 830.203c0,17.6728 14.328,32.0008 32.0008,32.0008l1472 0c17.6728,0 32.0008,-14.328 32.0008,-32.0008zm-1006.78 -593.64c7.37008,51.7607 19.9134,102.558 35.3481,146.562l-3.11221 -3c-14.2937,-13.9122 -28.2827,-29.3173 -39.1996,-46.0689 -12.7725,-19.5957 -23.1425,-44.2382 -15.6165,-67.7611 3.85394,-12.0496 12.2362,-22.1067 22.5803,-29.7319zm-58.4575 9.70394c-14.3162,26.1366 -7.76221,54.4394 5.4437,79.5709 23.7603,45.2162 72.9934,89.0883 115.804,122.226 1.18228,2.30315 2.37284,4.56378 3.57048,6.77835 24.1418,44.6504 53.9363,79.7304 87.5741,101.899 -12.8988,43.526 -47.6339,141.602 -105.177,168.768l380.039 0c-57.5445,-27.1654 -92.2772,-125.241 -105.177,-168.767 33.6378,-22.1681 63.4347,-57.2481 87.5764,-101.9 1.19764,-2.21457 2.38819,-4.4752 3.57048,-6.77835 42.8103,-33.1382 92.0434,-77.0103 115.804,-122.226 13.2059,-25.1315 19.7599,-53.4343 5.4437,-79.5709 -10.2945,-18.7949 -29.1036,-32.4992 -47.9315,-41.9079 -2.06221,-1.02992 -4.18229,-2.04331 -6.34725,-3.02481 1.96654,-20.7638 3.02599,-41.4733 3.02599,-61.7504l-0.0448819 -2.89016 -491.875 0 -0.0448819 2.89016c0,20.2772 1.06063,40.9866 3.02599,61.7504 -2.16496,0.981497 -4.28504,1.99488 -6.34725,3.02481 -18.828,9.40867 -37.637,23.113 -47.9315,41.9079zm500.665 136.858c15.4358,-44.0044 27.9768,-94.7989 35.3481,-146.562 10.3902,7.52953 18.7394,17.4555 22.6795,30.0402 7.36418,23.5252 -3.08977,48.1524 -15.8764,67.6985 -10.9323,16.7114 -24.9095,32.0835 -39.1937,45.9744l-2.95748 2.84882z"/>
  </g>
 </g>
 <rect class="fil2" width="2048" height="2048"/>
</svg>
